<svg viewBox="0 0 200 200" xmlns="http://www.w3.org/2000/svg">
  <!-- Hexagon Network Logo - Light Mode -->
  <defs>
    <linearGradient id="grad-light" x1="0%" y1="0%" x2="100%" y2="100%">
      <stop offset="0%" style="stop-color:#2D6CE3;stop-opacity:1" />
      <stop offset="100%" style="stop-color:#4B8BF5;stop-opacity:1" />
    </linearGradient>
  </defs>
  
  <!-- Hexagon outer edges -->
  <g stroke="url(#grad-light)" stroke-width="3" fill="none" stroke-linecap="round">
    <line x1="150" y1="60" x2="150" y2="140"/>
    <line x1="150" y1="140" x2="100" y2="170"/>
    <line x1="100" y1="170" x2="50" y2="140"/>
    <line x1="50" y1="140" x2="50" y2="60"/>
    <line x1="50" y1="60" x2="100" y2="30"/>
    <line x1="100" y1="30" x2="150" y2="60"/>
  </g>

  <!-- Nodes at vertices -->
  <g fill="url(#grad-light)">
    <circle cx="100" cy="30" r="8"/>
    <circle cx="150" cy="60" r="8"/>
    <circle cx="150" cy="140" r="8"/>
    <circle cx="100" cy="170" r="8"/>
    <circle cx="50" cy="140" r="8"/>
    <circle cx="50" cy="60" r="8"/>
    <circle cx="100" cy="100" r="6" style="fill:#FF9500;"/>
  </g>

  <!-- Internal connections -->
  <g stroke="#4B8BF5" stroke-width="2" fill="none" opacity="0.6" stroke-linecap="round">
    <line x1="100" y1="30" x2="100" y2="100"/>
    <line x1="150" y1="60" x2="100" y2="100"/>
    <line x1="150" y1="140" x2="100" y2="100"/>
  </g>
</svg>
